{
    "asset": {
        "generator": "FBX2glTF v0.9.7",
        "version": "2.0"
    },
    "scene": 0,
    "extensionsUsed": [
        "KHR_lights_punctual"
    ],
    "buffers": [
        {
            "byteLength": 122360,
            "uri": "buffer.bin"
        }
    ],
    "bufferViews": [
        {
            "buffer": 0,
            "byteLength": 23808,
            "byteOffset": 0,
            "target": 34963
        },
        {
            "buffer": 0,
            "byteLength": 25716,
            "byteOffset": 23808,
            "target": 34962
        },
        {
            "buffer": 0,
            "byteLength": 25716,
            "byteOffset": 49524,
            "target": 34962
        },
        {
            "buffer": 0,
            "byteLength": 17144,
            "byteOffset": 75240,
            "target": 34962
        },
        {
            "buffer": 0,
            "byteLength": 4632,
            "byteOffset": 92384,
            "target": 34963
        },
        {
            "buffer": 0,
            "byteLength": 9504,
            "byteOffset": 97016,
            "target": 34962
        },
        {
            "buffer": 0,
            "byteLength": 9504,
            "byteOffset": 106520,
            "target": 34962
        },
        {
            "buffer": 0,
            "byteLength": 6336,
            "byteOffset": 116024,
            "target": 34962
        }
    ],
    "scenes": [
        {
            "name": "Root Scene",
            "nodes": [
                0
            ]
        }
    ],
    "accessors": [
        {
            "componentType": 5123,
            "type": "SCALAR",
            "count": 11904,
            "bufferView": 0,
            "byteOffset": 0
        },
        {
            "componentType": 5126,
            "type": "VEC3",
            "count": 2143,
            "bufferView": 1,
            "byteOffset": 0,
            "min": [
                -0.00999999698251486,
                -0.00999999698251486,
                -0.00999999977648258
            ],
            "max": [
                0.00999999884516001,
                0.00999999977648258,
                0.00999999977648258
            ]
        },
        {
            "componentType": 5126,
            "type": "VEC3",
            "count": 2143,
            "bufferView": 2,
            "byteOffset": 0
        },
        {
            "componentType": 5126,
            "type": "VEC2",
            "count": 2143,
            "bufferView": 3,
            "byteOffset": 0
        },
        {
            "componentType": 5123,
            "type": "SCALAR",
            "count": 2316,
            "bufferView": 4,
            "byteOffset": 0
        },
        {
            "componentType": 5126,
            "type": "VEC3",
            "count": 792,
            "bufferView": 5,
            "byteOffset": 0,
            "min": [
                -0.000722503638826311,
                -0.000722351076547056,
                -0.000119999996968545
            ],
            "max": [
                0.000722503638826311,
                0.000722351076547056,
                0.000119999996968545
            ]
        },
        {
            "componentType": 5126,
            "type": "VEC3",
            "count": 792,
            "bufferView": 6,
            "byteOffset": 0
        },
        {
            "componentType": 5126,
            "type": "VEC2",
            "count": 792,
            "bufferView": 7,
            "byteOffset": 0
        }
    ],
    "samplers": [
        {}
    ],
    "materials": [
        {
            "name": "arowse-black-alpha",
            "alphaMode": "OPAQUE",
            "extras": {
                "fromFBX": {
                    "shadingModel": "Phong",
                    "isTruePBR": false
                }
            },
            "pbrMetallicRoughness": {
                "baseColorFactor": [
                    0.0152084985747933,
                    0.0152085013687611,
                    0.0152085153385997,
                    1.0
                ],
                "metallicFactor": 0.400000005960464,
                "roughnessFactor": 0.272165536880493
            }
        },
        {
            "name": "arowse-white",
            "alphaMode": "OPAQUE",
            "extras": {
                "fromFBX": {
                    "shadingModel": "Phong",
                    "isTruePBR": false
                }
            },
            "pbrMetallicRoughness": {
                "baseColorFactor": [
                    1.0,
                    1.0,
                    1.0,
                    1.0
                ],
                "metallicFactor": 0.400000005960464,
                "roughnessFactor": 1.0
            }
        }
    ],
    "meshes": [
        {
            "name": "Sphere",
            "primitives": [
                {
                    "material": 0,
                    "mode": 4,
                    "attributes": {
                        "NORMAL": 2,
                        "POSITION": 1,
                        "TEXCOORD_0": 3
                    },
                    "indices": 0
                }
            ]
        },
        {
            "name": "symbol-sphere",
            "primitives": [
                {
                    "material": 1,
                    "mode": 4,
                    "attributes": {
                        "NORMAL": 6,
                        "POSITION": 5,
                        "TEXCOORD_0": 7
                    },
                    "indices": 4
                }
            ]
        }
    ],
    "cameras": [
        {
            "name": "",
            "type": "perspective",
            "perspective": {
                "znear": 10.0,
                "zfar": 10000.0,
                "aspectRatio": 1.5,
                "yfov": 0.471089959144592
            }
        }
    ],
    "nodes": [
        {
            "name": "RootNode",
            "translation": [
                0.0,
                0.0,
                0.0
            ],
            "rotation": [
                0.0,
                0.0,
                0.0,
                1.0
            ],
            "scale": [
                1.0,
                1.0,
                1.0
            ],
            "children": [
                1,
                2,
                3
            ]
        },
        {
            "name": "Light",
            "translation": [
                4.07624530792236,
                5.90386199951172,
                -1.00545394420624
            ],
            "rotation": [
                0.169075757265091,
                0.755880355834961,
                -0.272171378135681,
                0.570947468280792
            ],
            "scale": [
                100.000007629395,
                100.0,
                100.0
            ],
            "extensions": {
                "KHR_lights_punctual": {
                    "light": 0
                }
            }
        },
        {
            "name": "Camera",
            "translation": [
                0.0,
                1.0,
                5.0
            ],
            "rotation": [
                0.0,
                -2.98023223876953e-08,
                0.0,
                0.99999988079071
            ],
            "scale": [
                100.0,
                100.0,
                100.0
            ],
            "camera": 0
        },
        {
            "name": "arowse-sphere",
            "translation": [
                0.0,
                1.0,
                0.0
            ],
            "rotation": [
                -0.707106828689575,
                0.0,
                0.0,
                0.707106709480286
            ],
            "scale": [
                100.0,
                100.0,
                100.0
            ],
            "children": [
                4,
                5
            ]
        },
        {
            "name": "Sphere",
            "translation": [
                0.0,
                0.0,
                0.0
            ],
            "rotation": [
                -9.35847779969032e-24,
                9.35847858855123e-24,
                0.707106828689575,
                0.707106709480286
            ],
            "scale": [
                0.50000011920929,
                0.500000059604645,
                0.5
            ],
            "mesh": 0
        },
        {
            "name": "symbol-sphere",
            "translation": [
                0.0,
                0.0,
                0.0
            ],
            "rotation": [
                0.707106828689575,
                0.0,
                0.0,
                0.707106709480286
            ],
            "scale": [
                3.46019005775452,
                3.46092104911804,
                6.25
            ],
            "mesh": 1
        }
    ],
    "extensions": {
        "KHR_lights_punctual": {
            "lights": [
                {
                    "name": "",
                    "color": [
                        1.0,
                        1.0,
                        1.0
                    ],
                    "intensity": 1000.0,
                    "type": "point"
                }
            ]
        }
    }
}